<mxfile host="app.diagrams.net" modified="2021-05-21T06:38:02.353Z" agent="5.0 (Macintosh; Intel Mac OS X 10_15_7) AppleWebKit/537.36 (KHTML, like Gecko) Chrome/90.0.4430.212 Safari/537.36" etag="NHi2yL-9KV35MaIVoLQF" version="14.6.13" type="github">
  <diagram id="cHpljytomQeeSi1uzRHg" name="第 1 页">
    <mxGraphModel dx="946" dy="646" grid="1" gridSize="10" guides="1" tooltips="1" connect="1" arrows="1" fold="1" page="1" pageScale="1" pageWidth="827" pageHeight="1169" math="0" shadow="0">
      <root>
        <mxCell id="0" />
        <mxCell id="1" parent="0" />
        <mxCell id="ClPLYdT7_vDPnRrnv_5F-21" value="" style="shape=image;html=1;verticalLabelPosition=bottom;verticalAlign=top;imageAspect=0;image=img/clipart/Gear_128x128.png" parent="1" vertex="1">
          <mxGeometry x="310" y="120" width="50" height="60" as="geometry" />
        </mxCell>
        <mxCell id="ClPLYdT7_vDPnRrnv_5F-30" value="Actor" style="shape=umlActor;verticalLabelPosition=bottom;verticalAlign=top;html=1;" parent="1" vertex="1">
          <mxGeometry x="360" y="50" width="165" height="310" as="geometry" />
        </mxCell>
        <mxCell id="ClPLYdT7_vDPnRrnv_5F-31" value="" style="shape=image;html=1;verticalLabelPosition=bottom;verticalAlign=top;imageAspect=0;image=img/clipart/Gear_128x128.png" parent="1" vertex="1">
          <mxGeometry x="525" y="120" width="50" height="60" as="geometry" />
        </mxCell>
        <mxCell id="ClPLYdT7_vDPnRrnv_5F-33" value="Table" style="shape=table;html=1;whiteSpace=wrap;startSize=30;container=1;collapsible=0;childLayout=tableLayout;fontStyle=1;align=center;" parent="1" vertex="1">
          <mxGeometry x="180" y="360" width="180" height="150" as="geometry" />
        </mxCell>
        <mxCell id="ClPLYdT7_vDPnRrnv_5F-34" value="" style="shape=partialRectangle;html=1;whiteSpace=wrap;collapsible=0;dropTarget=0;pointerEvents=0;fillColor=none;top=0;left=0;bottom=0;right=0;points=[[0,0.5],[1,0.5]];portConstraint=eastwest;" parent="ClPLYdT7_vDPnRrnv_5F-33" vertex="1">
          <mxGeometry y="30" width="180" height="40" as="geometry" />
        </mxCell>
        <mxCell id="ClPLYdT7_vDPnRrnv_5F-35" value="" style="shape=partialRectangle;html=1;whiteSpace=wrap;connectable=0;fillColor=none;top=0;left=0;bottom=0;right=0;overflow=hidden;" parent="ClPLYdT7_vDPnRrnv_5F-34" vertex="1">
          <mxGeometry width="60" height="40" as="geometry" />
        </mxCell>
        <mxCell id="ClPLYdT7_vDPnRrnv_5F-36" value="" style="shape=partialRectangle;html=1;whiteSpace=wrap;connectable=0;fillColor=none;top=0;left=0;bottom=0;right=0;overflow=hidden;" parent="ClPLYdT7_vDPnRrnv_5F-34" vertex="1">
          <mxGeometry x="60" width="60" height="40" as="geometry" />
        </mxCell>
        <mxCell id="ClPLYdT7_vDPnRrnv_5F-37" value="" style="shape=partialRectangle;html=1;whiteSpace=wrap;connectable=0;fillColor=none;top=0;left=0;bottom=0;right=0;overflow=hidden;" parent="ClPLYdT7_vDPnRrnv_5F-34" vertex="1">
          <mxGeometry x="120" width="60" height="40" as="geometry" />
        </mxCell>
        <mxCell id="ClPLYdT7_vDPnRrnv_5F-38" value="" style="shape=partialRectangle;html=1;whiteSpace=wrap;collapsible=0;dropTarget=0;pointerEvents=0;fillColor=none;top=0;left=0;bottom=0;right=0;points=[[0,0.5],[1,0.5]];portConstraint=eastwest;" parent="ClPLYdT7_vDPnRrnv_5F-33" vertex="1">
          <mxGeometry y="70" width="180" height="40" as="geometry" />
        </mxCell>
        <mxCell id="ClPLYdT7_vDPnRrnv_5F-39" value="" style="shape=partialRectangle;html=1;whiteSpace=wrap;connectable=0;fillColor=none;top=0;left=0;bottom=0;right=0;overflow=hidden;" parent="ClPLYdT7_vDPnRrnv_5F-38" vertex="1">
          <mxGeometry width="60" height="40" as="geometry" />
        </mxCell>
        <mxCell id="ClPLYdT7_vDPnRrnv_5F-40" value="" style="shape=partialRectangle;html=1;whiteSpace=wrap;connectable=0;fillColor=none;top=0;left=0;bottom=0;right=0;overflow=hidden;" parent="ClPLYdT7_vDPnRrnv_5F-38" vertex="1">
          <mxGeometry x="60" width="60" height="40" as="geometry" />
        </mxCell>
        <mxCell id="ClPLYdT7_vDPnRrnv_5F-41" value="" style="shape=partialRectangle;html=1;whiteSpace=wrap;connectable=0;fillColor=none;top=0;left=0;bottom=0;right=0;overflow=hidden;" parent="ClPLYdT7_vDPnRrnv_5F-38" vertex="1">
          <mxGeometry x="120" width="60" height="40" as="geometry" />
        </mxCell>
        <mxCell id="ClPLYdT7_vDPnRrnv_5F-42" value="" style="shape=partialRectangle;html=1;whiteSpace=wrap;collapsible=0;dropTarget=0;pointerEvents=0;fillColor=none;top=0;left=0;bottom=0;right=0;points=[[0,0.5],[1,0.5]];portConstraint=eastwest;" parent="ClPLYdT7_vDPnRrnv_5F-33" vertex="1">
          <mxGeometry y="110" width="180" height="40" as="geometry" />
        </mxCell>
        <mxCell id="ClPLYdT7_vDPnRrnv_5F-43" value="" style="shape=partialRectangle;html=1;whiteSpace=wrap;connectable=0;fillColor=none;top=0;left=0;bottom=0;right=0;overflow=hidden;" parent="ClPLYdT7_vDPnRrnv_5F-42" vertex="1">
          <mxGeometry width="60" height="40" as="geometry" />
        </mxCell>
        <mxCell id="ClPLYdT7_vDPnRrnv_5F-44" value="" style="shape=partialRectangle;html=1;whiteSpace=wrap;connectable=0;fillColor=none;top=0;left=0;bottom=0;right=0;overflow=hidden;" parent="ClPLYdT7_vDPnRrnv_5F-42" vertex="1">
          <mxGeometry x="60" width="60" height="40" as="geometry" />
        </mxCell>
        <mxCell id="ClPLYdT7_vDPnRrnv_5F-45" value="" style="shape=partialRectangle;html=1;whiteSpace=wrap;connectable=0;fillColor=none;top=0;left=0;bottom=0;right=0;overflow=hidden;" parent="ClPLYdT7_vDPnRrnv_5F-42" vertex="1">
          <mxGeometry x="120" width="60" height="40" as="geometry" />
        </mxCell>
        <mxCell id="ClPLYdT7_vDPnRrnv_5F-49" value="" style="edgeStyle=orthogonalEdgeStyle;rounded=0;orthogonalLoop=1;jettySize=auto;html=1;" parent="1" source="ClPLYdT7_vDPnRrnv_5F-47" target="ClPLYdT7_vDPnRrnv_5F-48" edge="1">
          <mxGeometry relative="1" as="geometry" />
        </mxCell>
        <mxCell id="ClPLYdT7_vDPnRrnv_5F-47" value="" style="rounded=0;whiteSpace=wrap;html=1;" parent="1" vertex="1">
          <mxGeometry x="525" y="360" width="120" height="60" as="geometry" />
        </mxCell>
        <mxCell id="ClPLYdT7_vDPnRrnv_5F-51" value="" style="edgeStyle=orthogonalEdgeStyle;rounded=0;orthogonalLoop=1;jettySize=auto;html=1;curved=1;" parent="1" source="ClPLYdT7_vDPnRrnv_5F-48" target="ClPLYdT7_vDPnRrnv_5F-50" edge="1">
          <mxGeometry relative="1" as="geometry" />
        </mxCell>
        <mxCell id="ClPLYdT7_vDPnRrnv_5F-48" value="" style="ellipse;whiteSpace=wrap;html=1;rounded=0;" parent="1" vertex="1">
          <mxGeometry x="525" y="500" width="120" height="60" as="geometry" />
        </mxCell>
        <mxCell id="ClPLYdT7_vDPnRrnv_5F-50" value="" style="shape=hexagon;perimeter=hexagonPerimeter2;whiteSpace=wrap;html=1;fixedSize=1;rounded=0;" parent="1" vertex="1">
          <mxGeometry x="660" y="430" width="120" height="80" as="geometry" />
        </mxCell>
        <mxCell id="ClPLYdT7_vDPnRrnv_5F-52" value="" style="shape=image;verticalLabelPosition=bottom;labelBackgroundColor=#ffffff;verticalAlign=top;aspect=fixed;imageAspect=0;image=data:image/png,iVBORw0KGgoAAAANSUhEUgAAAEQAAABsCAYAAADT7BTpAAATeklEQVR4Ae2biV9TVxbH51+a7pvW2rpUOx3bqW217Uzt2Dpt7UwX617UqrhVAUEBRVS0oICiCMoOCRAIhJCQBAhhM3teAtlXwN98zsOH4SUECKj99JPw4XPfDe/dd+/3nnPuuece/oLEZxqBv0yrJSpIAOEJQQJIAgiPAK+akJAEEB4BXjUhIQkgPAK8akJCEkB4BHjVhIQkgPAI8KoJCUkA4RHgVRMSkgDCI8CrJiQkAYRHgFdNSEgCCI8Ar5qQkAQQHgFeNSEhCSA8ArxqQkISQHgEeNWEhCSA8Ajwqn8ICXnw4AGCoRCMZgbDOgNMFiu8Ph/o+yf9+UMACYbGYHYEUNiqQ3qFBkWtOvTpRzE2PvGkefwxDrvV/cM4UqLC+yeb8eavDVh7tBG78uWwugKYmHiyUvLUJSQ0NgaRYhgfnBThxd01+Ov2Kjy7sxofprVCPGCH0+N/oqrz1IFYbA4Ui/V4/UA9C4OA0O+qw0KcqxnAkJ7B+BNUnacKZGxsDM2yPiQVKvDy3tppQF5LqsOX2e1olKrh9nifmJQ8VSCWEReyqvqw4qAAz+6ongbkmR2VeG5nNdLv9aFnyAhSrSfxeSpAQqEQBo02pN5R4B8nRXjhoe3g1IUrCcrao0IcLe5Am3KAXZofN5QnDmTU4YRIrsGxEiXe/60ZL+6uxTM86eCAUElQ3j3ehKQrIlSLVXB5Hq9/8sSAkJNlsY2gUtSFA0UKLNvXgGd3VE5Tk3AQ/Ou3Dgqw45oKAo0bZrv3sanQEwEyMTEBl28MlSoHtl6U4YVdk8srf9Cz1V/aU4sNp8W43WGC0eZ+LCr02IGMj4/DGxjDhfr7+DSjHS//Uh9TRWJBIfV5flcN3vtNxBrjIZN90b3ZxwrE5/eje9iCE6VqfJjSgleT6libEGvQc/kb2Z33T4qQXCyDpFcHj3fx7MpjAzJid6BRNoBjt3uwOlkYt5rMBIiW5LVHGrH/ugw1bT0wMTaQNC70s+hAyF5YrCOoau/D3utyLN0XqSIk+q8l1WPVYQHePNgw40pD9604JGC91tf31bN+STgg+jvZlR/zZLglkENrNC/Y2C4qEILh8XpR2jKATZnteH7npBvODYIGQDNLXuimMy1ILe/G3mtyrDnayO5fuPuo5Ab7a7ECJ+9045ucdhAUapP+Fn4vXX+S3oYCkRE2VwDjE/HvkhcNCO1KdTYXMkqlWP+bAK/sJf9iesdXHRJi29Uu3G4dQrdmGEazBXcEUnyX2zG1seMGSnbi78cbca9ZzsZIuge0qJAa8UuhEm8facRzPNgv76nF+pQWnCrrwX2GVqCxuNz9RQESCIYg0ZiQWqlhPU9u10qDo1Vh7dEm7L2mRG03Ax1jg5UxIhQKsupeJ+7CT3nRgaw70YgmaS+7vAb8fjhGGRh0atxt78GBYgXWn3q0Q6Z3kfqsO9GEgze60dKtw6jTDZLa+XwWBIRe5nR7IFTqcfhWL9YcaZzak7z6Sz27PP5woRWpBXXo6OmHlTEgYFLALr0JRtsHn8+DKpEM3+VKIiSEQK45IoRQ0g2fzwebQQN31y0E1BUw6XrRrupFTqkYP1/pZFcwslW0H3puZw3eOFCPpEIlKto00FtsGBubu7GNGwh5nhTmE/Uy+P6yjDWez+2qwSu/kLEUYlNaHc7c6YSsTweH3Q6Xvhuu5nOwXv4UTPY6+GTFsFv0uCtox5bsdrywa7q9IVvz5v561IuVcDlG4FeVwXruPVjPr4NbmAFTrxiMxYRhxoFLNQp8nS3CmuRG1lgTGFK5/17qRKmoDyOOuUtK3EDGxsehtfnxcaoYL+2Z9C/Ibnya0YZrIj00900IBIJwOuzwDohgK/4BlrNvw5zyOlu6BKdhHOzBrZoWbDrbErHBoyDRq0m1qGntgkXbD7f4Mhh6/tQSWNKWw1b4P3j7q/Ag5AFtFrXmUdwU6/BtbifInnAGfMt5CZp7TPAFQnPSnLiBkIQYLTZsyWzGeyea8UOeHFdrlJAqethgccDngUOrQt+9M7DkfQHm7GoWhvnUa7BkrISjdC+GuiUoqmjEp6dFUVckUptKMqo9HRitSwVzZhXoeRZKxmrYCrfA1ZYNj6kbHpcdFsYKqUqDEvF97MhX4N1jzdj2exf6jM45e7RxAyHctMRWdGpROTgCcb8BerMVFPQh48coauGsOgHr5c9gTln6cCA0mNdgTlsOa/6XUEsEuF7egA2pTRE+BhlJ2vxVSQegVophLTsAS/qK6e2cXg7mwno4Kn6FoaMcjGEYfr8f1hEnmjqUKKzvQpV0EKPuuQeYFgSEpCQQGsPEgwegn0DAB92gGtaO2xgp2QYmcy07m5Oz+hAGAUl9A9bL/0R3Wz3ySmqw7pggwg9hgeysxj2ZGapuKSy3f4El/a3pQB5Ki/n0cowUf4/+ujzc75XD7/Oyq0tobHzey++CgHBKSatNKOTHuE8HT3MWbDn/mFKP6TCWwJy6DJbMtRi5tR0aeSuyr1dixf66qdWJQHC/ZAcKmrVQqWQYqT4JS9bfYE5ZFh3yqddYaXHV/YYxpgcBnwvjcUTZFgWI3+OEq7sK9rIdk4YzlTodJhHcdeoyMBc+hKMyGUGDHIN6A06UKFjjyUEILwkI+RR9g4MI6DrhrD0JJvdjmE+/CXPKksh3pL7OSqWt4Cs45aVwWQ0YH59f6HFBQIKBACyDSpjqs2C79jUsZ9dEzl7acjC5G+Eo3w+ftACMqh6DaiWMjA2XGtTYmNbCOm/hILhrAkLRsovVcvT0D+K+RgWvQQKf4gbsFYdhvfL5Q7sSDmcpzOlvwXZlE4bvpcCsbkUo4OWEedYyLiAT4+NwWE1QNt+DpeIYmEsb2aVwUiqWwJy+AtaLn2Dk5nYYK05CcjcPA/ImjFqNYGw21LcrkVXZi88yxLOGBMgf+eS0GCeK2lEjlsNmH2XbGVKK0dNwHfaGM3Dc3gVr3j8fLuscnCVgcj6Es+oIXN3V8NrNCAUDs7rzcQEJ+twIDDbDVvz9Q/Fdys4Uk/M+RvL/DVfDKeibLoPpaYLHzrArj5mxQabR40abAT9dlT8MIT6yF5xUzFQu/7UB31yQoqBZh9aufuhNFni9XgQ9DljVbVBX5UB9bTcsV76EJecDmDNWTvo8GaswWvgt/OpaeB0MaDJjfeICYtX1wyXKgTntzUkjmbEKzO9bYBdmIqCTAROTThAZW38ggFF3EDfFRmw5L8WrSZHhgJkg8L8nFSKH7fOzbfi9SYsBkwP+QHBqv+JzO+HXK+AQXYTt+lYw2e+yS7wl8x04q4/BMtDFSsmiA2ElpF8Ae8l2uJqzERpqwqheA6vFBK/HzQZqyJPVGOy4XNuNzVkdbDCHYiA0IP5A51MnKHSotfpwIzZntiCrXI5e3Qi8/gDrsfq8HtisFnhHtAjqxPC05sJRcRj+3gq4bcZZV564JITEbpQxQtnRBP2gGl63k30R+SXB0Dhkai3yarux57qC3Xi9tHdxQofh4AgMhSTpXIdU8NxdKdpUQ3C6yQd5wNoK6pdxuB+aLgmsRh3rn1AfY33iAsJvkF4y6vRArr6Psk4GySVqdmtOMxnrzCV8gPFeExgyvARmf1E3CpsG0K4cgM1O7npse8EfB9UXBIRshMvtgWHEA2GfE8klvWzw5vkFqkW8cAjM6uRGdutfLbdAo2Ngd7jmFWtdEBAynU19Vuwq6MLqI01sIJlmLN4BLcZznMQs39+AbXlSVMiMcHiDiK0oj2QlLiA6kxX3pEM4Uj2AjRliLN8viNi+L8bgFtIGxUTeONCAj9NasbtAhmKhGlrGgdBY7AjanIFQbGPYaMWtOjGO5Ddic3Y7aBae3TF3X2IhA4z3WYqgLTtQzy7Vx8vVuNXSh95hMyjsGe0zKxA6BBrUGlEj6sS5mn58kdXOOlWzqcbLe+rY6BlF0eIdzFyeo35QFJ/eN9tZMd33eWY7MmqGIexzYEBvhdPlmfJj5mRUe4ZMuFA/hI2nW6PGLLhOU8de2F2LJUn1IK/yo7QWNgq+EEeMaztWSRKwIa0VH5xqwYqDQixNqmdtWSx/h+DRcSgl+Cn6jaxzx0nLrBJy9OJdrDwknHEDxnWWQHx2pg2pdzVo7LHihljPRtHCI/DcvYtZ0iR8kSXBNZEWtLKcrRzA5mzJw61BdCeQM7zkKOYJBmFzPcpjmxVIWkE13jnaGHHGQuG9tw4I8HWOFCnlfSiql6OxTQ5V3xDK2oawm1aew8KocQ5aHkmvVx4SYElS9FgIB42CxZRhRL/0HPc9V5IkkET+kCfDjXYDlNoRiKRKlIr6kXFPg+8udrKnAdEOzShR57rMDFfwkb8yK5DC6nZsymxjO0MQ3jnahK/OS/FrST8u1Blwt7kLPUMGOD0+2D0e1Iu7sP1SC3tMyU+TokHQoFYcEuLY7V7sK1Lio5SWqAOle2km6VAqqWgAh2/dZ2Ok0aDQvZTOuS2/CxWdetjdfni8fmi0JlQ2y5BVXI9DRTJ8c6ETfz/ezEbmCQYdm5S0D8DtnzwjmpMNaVMN4MQdNTakifHtJSl+KxLjrrgPw2YHxsNySB1ePzptXmz7nTvPjfRHaIBvHRLg56udbGLuXYkWW3OlEWcy3OzT/Ww+iNgIicaO5JIeUOLMTFBe31+PrRc7Iegegc3hmfJUQ6ExGG1OVEv6kX5HgR/zVPhXpgR7rikhkPbB6/dzJmR2T5VmXm10oW1wBN7g2DSLzLVCa3tDjxtbcztn7CwNkhJltuZ2QDbIsMvenSYV/nO+PSaQD1JacL2yBaMOFzRGFxsCIMMZTfroHXQuRBBrlQzsbl9E4i9tZRzecXTdd0CpdYAZJU/2kW8yq8pQigHleVBqJLnq4R/aw9DBcpnUiK0Xu7CEPemPlAxuxv+T04FbTT0PN2ATuCnowubsthlTJUhCKGJ2pbwZbo+P7YO4z8qevUyeHUfaFHqGjjQ/P9OGG63DsDo8bBA8vN8EwOvzswdtdEoQvuGbFUh4Q+HXBMfhCaBUasDWy52sV0id4QbPLzecbsWFO2JoDZYpsNdrZdiUKY7p5b6dLMSlUiFrE2hy6Oi0SNjL5rC+uCe6j0P9oKPUr853IF+ogck2941eXEAIhsnmQHmnDZvPdWBpjMwgdjU6KMB5oQHk04SnKlytlOKz9JaIQ6pwmORb5JQI4Pb6puZDa2TY7f76U80xn31lTy3+nS1BQdMA9IyDPTQPl4apBsMu5g2EYDB2N8pkZnySLp5R/2lQtCSS9d97XQmN2TMNBvXhYnkbNqQ2x/RxaD+SdaN2GhB6VqHRIu1uP1YdptSISNXhoJIf9FFqC2626dnjzkAwOE1Fwliwl/MG4vWHcK1Fz74kVkeoQxTA+TqnA1qrB4FQ5N7hXGkr1p+MPaBXkuqQUVgNl2d65JxWOJUhiJ0FSiw7QHuq6FBIfZ7fXYuVhxpxtXEYemts9Zk3kGaFlk16oY5ysxCtJFX5JrcTtTIde9AcTVTP3BRh3XFhzBkmTzQtvzICCE2ny+NHx6CdXWopuygWFNpTfX1BituNXVHb4iRl3kD69DYcL1Oz/sBMRpS+35QpQX6tEtZR14wimlIoxN+ORj/G5CBTW2fuSOBwP/IVuM6T+jrdPpS1a/HVecmMRxrUBq08B4pVaFUOT9u7cG1x5byB0HlpnVyHH6/Io3aA7AZlDGWXyzCgM0X4AdyLqTyR34A1yQ2zBp6zagdhpyBPlHgoQaHw5cWabmxMbYmwaQSD/c+KcxJUdAzPmlU0byA0EJ8/iHqFEZ+mt7Lk6aU0owSDMnlSq/qh6tdGGNFwGHSdfKUWKw/OLOqclKTd08Binwwe89vg6kMGKzIrevB28qMsJnqeJIO2B1VyI0bIJ+H5UtzzXBkXEJopm92FBpUV606IphwrMm4/53dhyB1CKMz7417GLw9crMTy/bUz6j4HJKVcDb3VFeFghbdHDlaHivJiVSAXnp6lAPfGdDEbeLbaJ49Hwp+Jdh0XEGqIOmCx2XGtaRAb01rxxr4G/PeyHG2DdngD0cWb34G95+5iaVI1ngk78ecghJcn7vRhyDR978Rvi+pOlxuNEhV+uCRhHUWKk5y904FB3dzzV+MGwkExWGwoEKhxvk6Pis7J1KVouh5tANvPluGVPZMzGQ6Af518q3fO/6U5anegSiTHmXI5CmoVUGruzxgujNanBQHhGvQHQgiExmOKNHcvV5Iub8uuxku8ZDs+DKpTSoRq2Dq1e+XaiFWSnfMHQ1ENcaznFgVIrBdE+xtJ0NjEA+wu6olYFaIB2VfYDVm/CbTCPe7PUwFC0uHxj+HnfMWcgJDrL1Eb/rxAaNc66g6wHu9cYq47flegRall88X+lBJCESyT3ccm/M4FyLarcjTKBxEIzi89Kh54T0VlCMiwxcVmGvMzmKPZkP9d7kRNRz9rJOMZ5HyeeSpAgsEQ+gwOfJsrnXLqooHgvvs2twP3xGr4Ao+CwfMZ5HzufSpASELoXzhoP0ShQG7g0cpndlbjpysyCGVDf16VoVWGElso8T8zvwxpebdn/r1SinvCdtzXm+b1Xw3zkYrwe5+KhIR34I92nQDCm5EEkAQQHgFeNSEhCSA8ArxqQkISQHgEeNWEhCSA8AjwqgkJSQDhEeBVExKSAMIjwKv+H06kl9MPt5H8AAAAAElFTkSuQmCC;" parent="1" vertex="1">
          <mxGeometry x="419.25" y="50" width="46.5" height="73.85" as="geometry" />
        </mxCell>
      </root>
    </mxGraphModel>
  </diagram>
</mxfile>
